# xmcd
#
# Track frame offsets:
#	150
#	14190
#	30420
#	45721
#	59221
#	76991
#	98564
#	116077
#	132297
#	148548
#	169436
#	187362
#	200826
#	222900
#
# Disc length: 3214 seconds
# Revision: 0
# Processed by: cddbd v1.5.2PL0 Copyright (c) Steve Scherf et al.
# Submitted via: dBpowerAMP V12.0
#
DISCID=dd0c8c0e
DTITLE=Bill Hearne and Friends - All That's Real
DYEAR=2011
DGENRE=Americana
TTITLE0=Rita Ballou
TTITLE1=On a Dream With You
TTITLE2=Real Good Itch
TTITLE3=One of These Days
TTITLE4=Head Full of Nothin'
TTITLE5=Goodbye to Old Missoula
TTITLE6=My Home Ain't in the Hall of Fame
TTITLE7=Song for a Winter's Night
TTITLE8=City Lights
TTITLE9=Bird on a Wire
TTITLE10=The Road
TTITLE11=Ruby Louise
TTITLE12=Dust on My Boots
TTITLE13=Truck Song
EXTD=
EXTT0=
EXTT1=
EXTT2=
EXTT3=
EXTT4=
EXTT5=
EXTT6=
EXTT7=
EXTT8=
EXTT9=
EXTT10=
EXTT11=
EXTT12=
EXTT13=
PLAYORDER=
